<svg width="27" height="24" viewBox="0 0 27 24" fill="none" xmlns="http://www.w3.org/2000/svg">
<g clip-path="url(#clip0_229_1452)">
<rect width="27" height="24" fill="#F9FAFF"/>
<path d="M3.87749 1.875L3.93556 2.17982L6.76184 17.0143C6.76188 17.0145 6.76193 17.0147 6.76197 17.015C6.83127 17.3692 7.14171 17.625 7.5 17.625H22.875C23.2913 17.625 23.625 17.2913 23.625 16.875C23.625 16.4587 23.2913 16.125 22.875 16.125H8.43281H8.12223L8.06437 15.8198L7.63781 13.5698L7.55348 13.125H8.00625H22.8656C23.3684 13.125 23.8114 12.7909 23.9485 12.3058L26.4795 3.3069L3.87749 1.875ZM3.87749 1.875H3.56719M3.87749 1.875H3.56719M3.56719 1.875H1.125C0.708669 1.875 0.375 1.54133 0.375 1.125C0.375 0.708669 0.708669 0.375 1.125 0.375H4.5C4.85838 0.375 5.16889 0.630958 5.23808 0.985318C5.23811 0.985454 5.23813 0.98559 5.23816 0.985726L5.35048 1.57071L5.4089 1.875M3.56719 1.875H5.4089M5.4089 1.875H5.71875M5.4089 1.875H5.71875M5.71875 1.875H25.3969C26.1405 1.875 26.68 2.58772 26.4796 3.30628L5.71875 1.875ZM10.125 21.75C10.125 22.7851 9.28508 23.625 8.25 23.625C7.21492 23.625 6.375 22.7851 6.375 21.75C6.375 20.7149 7.21492 19.875 8.25 19.875C9.28508 19.875 10.125 20.7149 10.125 21.75ZM21.75 19.875C22.7851 19.875 23.625 20.7149 23.625 21.75C23.625 22.7851 22.7851 23.625 21.75 23.625C20.7149 23.625 19.875 22.7851 19.875 21.75C19.875 20.7149 20.7149 19.875 21.75 19.875Z" fill="#F9FAFF" stroke="#5D3747" stroke-width="0.75"/>
</g>
<defs>
<clipPath id="clip0_229_1452">
<rect width="27" height="24" fill="white"/>
</clipPath>
</defs>
</svg>
