<svg width="23" height="20" viewBox="0 0 23 20" fill="none" xmlns="http://www.w3.org/2000/svg">
<g clip-path="url(#clip0_229_1454)">
<path d="M3.34103 1.80482L3.28296 1.5H2.97266H0.9375C0.625076 1.5 0.375 1.24992 0.375 0.9375C0.375 0.625076 0.625076 0.375 0.9375 0.375H3.75C4.01854 0.375 4.25171 0.566901 4.30371 0.832985C4.30373 0.833117 4.30376 0.83325 4.30379 0.833382L4.39735 1.32071L4.45578 1.625H4.76562H21.1641C21.7423 1.625 22.1623 2.17953 22.006 2.73893L19.8969 10.2379C19.8969 10.2379 19.8969 10.2379 19.8969 10.2379C19.7903 10.6152 19.4457 10.875 19.0547 10.875H6.67188H6.2191L6.30344 11.3198L6.65891 13.1948L6.71676 13.5H7.02734H19.0625C19.3749 13.5 19.625 13.7501 19.625 14.0625C19.625 14.3749 19.3749 14.625 19.0625 14.625H6.25C5.98155 14.625 5.74844 14.4332 5.69634 14.1673C5.6963 14.1671 5.69626 14.1668 5.69621 14.1666L3.34103 1.80482ZM8.375 18.125C8.375 18.953 7.70305 19.625 6.875 19.625C6.04695 19.625 5.375 18.953 5.375 18.125C5.375 17.297 6.04695 16.625 6.875 16.625C7.70305 16.625 8.375 17.297 8.375 18.125ZM18.125 16.625C18.953 16.625 19.625 17.297 19.625 18.125C19.625 18.953 18.953 19.625 18.125 19.625C17.297 19.625 16.625 18.953 16.625 18.125C16.625 17.297 17.297 16.625 18.125 16.625ZM10.625 5.09375C9.98821 5.09375 9.46875 5.61321 9.46875 6.25C9.46875 6.88679 9.98821 7.40625 10.625 7.40625H11.9688V8.75C11.9688 9.38679 12.4882 9.90625 13.125 9.90625C13.7618 9.90625 14.2812 9.38679 14.2812 8.75V7.40625H15.625C16.2618 7.40625 16.7812 6.88679 16.7812 6.25C16.7812 5.61321 16.2618 5.09375 15.625 5.09375H14.2812V3.75C14.2812 3.11321 13.7618 2.59375 13.125 2.59375C12.4882 2.59375 11.9688 3.11321 11.9688 3.75V5.09375H10.625Z" fill="#F9FAFF" stroke="#5D3747" stroke-width="0.75"/>
</g>
<defs>
<clipPath id="clip0_229_1454">
<rect width="22.5" height="20" fill="white"/>
</clipPath>
</defs>
</svg>
