<svg width="24" height="24" viewBox="0 0 24 24" fill="none" xmlns="http://www.w3.org/2000/svg">
<g clip-path="url(#clip0_229_1425)">
<path d="M4.06406 18.375H4.30996L4.40798 18.1495C4.9269 16.9555 6.11647 16.125 7.5 16.125C8.88353 16.125 10.0731 16.9555 10.592 18.1495L10.69 18.375H10.9359H22.5C23.1226 18.375 23.625 18.8774 23.625 19.5C23.625 20.1226 23.1226 20.625 22.5 20.625H10.9359H10.69L10.592 20.8505C10.0731 22.0445 8.88353 22.875 7.5 22.875C6.11647 22.875 4.9269 22.0445 4.40798 20.8505L4.30996 20.625H4.06406H1.5C0.877419 20.625 0.375 20.1226 0.375 19.5C0.375 18.8774 0.877419 18.375 1.5 18.375H4.06406ZM19.592 10.6495L19.69 10.875H19.9359H22.5C23.1226 10.875 23.625 11.3774 23.625 12C23.625 12.6226 23.1226 13.125 22.5 13.125H19.9359H19.69L19.592 13.3505C19.0731 14.5445 17.8835 15.375 16.5 15.375C15.1165 15.375 13.9269 14.5445 13.408 13.3505L13.31 13.125H13.0641H1.5C0.877419 13.125 0.375 12.6226 0.375 12C0.375 11.3774 0.877419 10.875 1.5 10.875H13.0641H13.31L13.408 10.6495C13.9269 9.45554 15.1165 8.625 16.5 8.625C17.8835 8.625 19.0731 9.45554 19.592 10.6495ZM12.092 3.14948L12.19 3.375H12.4359H22.5C23.1226 3.375 23.625 3.87742 23.625 4.5C23.625 5.12258 23.1226 5.625 22.5 5.625H12.4359H12.19L12.092 5.85052C11.5731 7.04446 10.3835 7.875 9 7.875C7.61647 7.875 6.4269 7.04446 5.90798 5.85052L5.80996 5.625H5.56406H1.5C0.877419 5.625 0.375 5.12258 0.375 4.5C0.375 3.87742 0.877419 3.375 1.5 3.375H5.56406H5.80996L5.90798 3.14948C6.4269 1.95554 7.61647 1.125 9 1.125C10.3835 1.125 11.5731 1.95554 12.092 3.14948ZM9.375 19.5C9.375 18.4632 8.53679 17.625 7.5 17.625C6.46321 17.625 5.625 18.4632 5.625 19.5C5.625 20.5368 6.46321 21.375 7.5 21.375C8.53679 21.375 9.375 20.5368 9.375 19.5ZM18.375 12C18.375 10.9632 17.5368 10.125 16.5 10.125C15.4632 10.125 14.625 10.9632 14.625 12C14.625 13.0368 15.4632 13.875 16.5 13.875C17.5368 13.875 18.375 13.0368 18.375 12ZM9 2.625C7.96321 2.625 7.125 3.46321 7.125 4.5C7.125 5.53679 7.96321 6.375 9 6.375C10.0368 6.375 10.875 5.53679 10.875 4.5C10.875 3.46321 10.0368 2.625 9 2.625Z" fill="#F9FAFF" stroke="#5D3747" stroke-width="0.75"/>
</g>
<defs>
<clipPath id="clip0_229_1425">
<rect width="24" height="24" fill="white"/>
</clipPath>
</defs>
</svg>
