<svg width="21" height="24" viewBox="0 0 21 24" fill="none" xmlns="http://www.w3.org/2000/svg">
<rect width="21" height="24" fill="white"/>
<path d="M0.375 4.5C0.375 3.87742 0.877419 3.375 1.5 3.375H19.5C20.1226 3.375 20.625 3.87742 20.625 4.5C20.625 5.12258 20.1226 5.625 19.5 5.625H1.5C0.877419 5.625 0.375 5.12258 0.375 4.5ZM0.375 12C0.375 11.3774 0.877419 10.875 1.5 10.875H19.5C20.1226 10.875 20.625 11.3774 20.625 12C20.625 12.6226 20.1226 13.125 19.5 13.125H1.5C0.877419 13.125 0.375 12.6226 0.375 12ZM20.625 19.5C20.625 20.1226 20.1226 20.625 19.5 20.625H1.5C0.877419 20.625 0.375 20.1226 0.375 19.5C0.375 18.8774 0.877419 18.375 1.5 18.375H19.5C20.1226 18.375 20.625 18.8774 20.625 19.5Z" fill="#F9FAFF" stroke="#5D3747" stroke-width="0.75"/>
</svg>
