<svg width="21" height="22" viewBox="0 0 21 22" fill="none" xmlns="http://www.w3.org/2000/svg">
<path d="M20.5598 6.6818L20.56 6.68531C20.6576 8.40553 20.6576 13.5851 20.5599 15.3053L20.5598 15.3078C20.4778 16.9438 20.1081 18.3272 18.9723 19.463L18.9718 19.4635C17.8362 20.6034 16.4533 20.973 14.8182 21.0504L14.8147 21.0506C13.0944 21.1482 7.9102 21.1482 6.18998 21.0506L6.1875 21.0505C4.55201 20.9685 3.17269 20.599 2.03182 19.4625C0.891855 18.3268 0.522298 16.944 0.444868 15.3088L0.444885 15.3088L0.444686 15.3053C0.347051 13.5851 0.347051 8.40084 0.444686 6.68062L0.444694 6.68062L0.444818 6.67815C0.526888 5.0413 0.892205 3.65876 2.03182 2.52348C3.17253 1.3871 4.55628 1.01761 6.18651 0.940197L6.18651 0.940213L6.18998 0.940016C7.9102 0.842382 13.0944 0.842382 14.8147 0.940016V0.940024L14.8171 0.940148C16.4532 1.02218 17.8365 1.39186 18.9723 2.52766L18.9728 2.52816C20.1128 3.6638 20.4823 5.04665 20.5598 6.6818ZM16.8351 19.533L16.8364 19.5324C17.8546 19.1241 18.6383 18.341 19.0421 17.3262C19.3442 16.5671 19.4485 15.3368 19.4851 14.1593C19.5118 13.3034 19.503 12.4318 19.4959 11.7308C19.4931 11.4556 19.4906 11.2067 19.4906 10.9953C19.4906 10.7839 19.4931 10.535 19.4959 10.2599C19.503 9.55931 19.5118 8.68847 19.4851 7.83304C19.4485 6.65597 19.3442 5.42594 19.0423 4.66487L19.0418 4.66354C18.6335 3.64541 17.8504 2.8617 16.8355 2.45782L16.8345 2.45741C16.0761 2.15819 14.8464 2.05386 13.6689 2.01659C12.8065 1.98929 11.9287 1.99771 11.2251 2.00445C10.9559 2.00703 10.7123 2.00937 10.5047 2.00937C10.2933 2.00937 10.0444 2.00685 9.76926 2.00406C9.06866 1.99697 8.19782 1.98816 7.34239 2.01482C6.16533 2.05152 4.9353 2.15581 4.17422 2.45766L4.1729 2.45819C3.15477 2.86647 2.37106 3.64958 1.96718 4.66446L1.96677 4.66549C1.66755 5.42387 1.56322 6.65357 1.52594 7.8311C1.49865 8.69347 1.50706 9.57125 1.51381 10.2749C1.51639 10.544 1.51873 10.7877 1.51873 10.9953C1.51873 11.2067 1.51621 11.4556 1.51342 11.7307C1.50633 12.4313 1.49752 13.3021 1.52418 14.1576C1.56087 15.3346 1.66517 16.5647 1.96701 17.3257L1.96754 17.3271C2.37583 18.3452 3.15894 19.1289 4.17382 19.5328L4.17484 19.5332C4.93322 19.8324 6.16293 19.9368 7.34046 19.974C8.20282 20.0013 9.0806 19.9929 9.78426 19.9862C10.0534 19.9836 10.2971 19.9812 10.5047 19.9812C10.716 19.9812 10.9649 19.9838 11.2401 19.9865C11.9407 19.9936 12.8115 20.0025 13.6669 19.9758C14.844 19.9391 16.074 19.8348 16.8351 19.533ZM5.49373 10.9953C5.49373 8.22116 7.73052 5.98437 10.5047 5.98437C13.2788 5.98437 15.5156 8.22116 15.5156 10.9953C15.5156 13.7695 13.2788 16.0062 10.5047 16.0062C7.73052 16.0062 5.49373 13.7695 5.49373 10.9953ZM6.6281 10.9953C6.6281 13.134 8.37132 14.8719 10.5047 14.8719C12.638 14.8719 14.3812 13.134 14.3812 10.9953C14.3812 8.85695 12.643 7.11874 10.5047 7.11874C8.36631 7.11874 6.6281 8.85695 6.6281 10.9953ZM16.9922 5.38906C16.9922 5.87948 16.5985 6.27031 16.1109 6.27031C15.6205 6.27031 15.2297 5.87661 15.2297 5.38906C15.2297 4.90241 15.6243 4.50781 16.1109 4.50781C16.5976 4.50781 16.9922 4.90241 16.9922 5.38906Z" fill="#F9FAFF" stroke="#5D3747" stroke-width="0.75"/>
</svg>
