<svg width="21" height="24" viewBox="0 0 21 24" fill="none" xmlns="http://www.w3.org/2000/svg">
<g clip-path="url(#clip0_215_1425)">
<rect width="21" height="24" fill="white"/>
<path d="M20.5598 7.6818L20.56 7.68531C20.6576 9.40553 20.6576 14.5851 20.5599 16.3053L20.5598 16.3078C20.4778 17.9438 20.1081 19.3272 18.9723 20.463L18.9718 20.4635C17.8362 21.6034 16.4533 21.973 14.8182 22.0504L14.8147 22.0506C13.0944 22.1482 7.9102 22.1482 6.18998 22.0506L6.1875 22.0505C4.55201 21.9685 3.17269 21.599 2.03182 20.4625C0.891855 19.3268 0.522298 17.944 0.444868 16.3088L0.444885 16.3088L0.444686 16.3053C0.347051 14.5851 0.347051 9.40084 0.444686 7.68062L0.444694 7.68062L0.444818 7.67815C0.526888 6.0413 0.892205 4.65876 2.03182 3.52348C3.17253 2.3871 4.55628 2.01761 6.18651 1.9402L6.18651 1.94021L6.18998 1.94002C7.9102 1.84238 13.0944 1.84238 14.8147 1.94002V1.94002L14.8171 1.94015C16.4532 2.02218 17.8365 2.39186 18.9723 3.52766L18.9728 3.52816C20.1128 4.6638 20.4823 6.04665 20.5598 7.6818ZM16.8351 20.533L16.8364 20.5324C17.8546 20.1241 18.6383 19.341 19.0421 18.3262C19.3442 17.5671 19.4485 16.3368 19.4851 15.1593C19.5118 14.3034 19.503 13.4318 19.4959 12.7308C19.4931 12.4556 19.4906 12.2067 19.4906 11.9953C19.4906 11.7839 19.4931 11.535 19.4959 11.2599C19.503 10.5593 19.5118 9.68847 19.4851 8.83304C19.4485 7.65597 19.3442 6.42594 19.0423 5.66487L19.0418 5.66354C18.6335 4.64541 17.8504 3.8617 16.8355 3.45782L16.8345 3.45741C16.0761 3.15819 14.8464 3.05386 13.6689 3.01659C12.8065 2.98929 11.9287 2.99771 11.2251 3.00445C10.9559 3.00703 10.7123 3.00937 10.5047 3.00937C10.2933 3.00937 10.0444 3.00685 9.76926 3.00406C9.06866 2.99697 8.19782 2.98816 7.34239 3.01482C6.16533 3.05152 4.9353 3.15581 4.17422 3.45766L4.1729 3.45819C3.15477 3.86647 2.37106 4.64958 1.96718 5.66446L1.96677 5.66549C1.66755 6.42387 1.56322 7.65357 1.52594 8.8311C1.49865 9.69347 1.50706 10.5712 1.51381 11.2749C1.51639 11.544 1.51873 11.7877 1.51873 11.9953C1.51873 12.2067 1.51621 12.4556 1.51342 12.7307C1.50633 13.4313 1.49752 14.3021 1.52418 15.1576C1.56087 16.3346 1.66517 17.5647 1.96701 18.3257L1.96754 18.3271C2.37583 19.3452 3.15894 20.1289 4.17382 20.5328L4.17484 20.5332C4.93322 20.8324 6.16293 20.9368 7.34046 20.974C8.20282 21.0013 9.08061 20.9929 9.78426 20.9862C10.0534 20.9836 10.2971 20.9812 10.5047 20.9812C10.716 20.9812 10.9649 20.9838 11.2401 20.9865C11.9407 20.9936 12.8115 21.0025 13.6669 20.9758C14.844 20.9391 16.074 20.8348 16.8351 20.533ZM5.49373 11.9953C5.49373 9.22116 7.73052 6.98437 10.5047 6.98437C13.2788 6.98437 15.5156 9.22116 15.5156 11.9953C15.5156 14.7695 13.2788 17.0062 10.5047 17.0062C7.73052 17.0062 5.49373 14.7695 5.49373 11.9953ZM6.6281 11.9953C6.6281 14.134 8.37132 15.8719 10.5047 15.8719C12.638 15.8719 14.3812 14.134 14.3812 11.9953C14.3812 9.85695 12.643 8.11874 10.5047 8.11874C8.36631 8.11874 6.6281 9.85695 6.6281 11.9953ZM16.9922 6.38906C16.9922 6.87948 16.5985 7.27031 16.1109 7.27031C15.6205 7.27031 15.2297 6.87661 15.2297 6.38906C15.2297 5.90241 15.6243 5.50781 16.1109 5.50781C16.5976 5.50781 16.9922 5.90241 16.9922 6.38906Z" fill="#F9FAFF" stroke="#5D3747" stroke-width="0.75"/>
</g>
<defs>
<clipPath id="clip0_215_1425">
<rect width="21" height="24" fill="white"/>
</clipPath>
</defs>
</svg>
