<svg width="24" height="24" viewBox="0 0 24 24" fill="none" xmlns="http://www.w3.org/2000/svg">
<g clip-path="url(#clip0_229_1456)">
<rect width="24" height="24" fill="#F9FAFF"/>
<path d="M17.3221 15.2805L17.133 15.5397L17.3597 15.7666L23.2941 21.7057L23.2942 21.7058C23.7337 22.1453 23.7337 22.8594 23.2942 23.2989C22.8548 23.7384 22.1407 23.7384 21.7012 23.299C21.7012 23.299 21.7011 23.2989 21.7011 23.2989L15.7668 17.3599L15.5395 17.1324L15.28 17.3225C13.7299 18.458 11.8196 19.125 9.75 19.125C4.57117 19.125 0.375 14.9288 0.375 9.75C0.375 4.57117 4.57117 0.375 9.75 0.375C14.9288 0.375 19.125 4.57117 19.125 9.75C19.125 11.8191 18.4536 13.7297 17.3221 15.2805ZM9.75 16.875C13.6837 16.875 16.875 13.6837 16.875 9.75C16.875 5.81633 13.6837 2.625 9.75 2.625C5.81633 2.625 2.625 5.81633 2.625 9.75C2.625 13.6837 5.81633 16.875 9.75 16.875Z" fill="#F9FAFF" stroke="#5D3747" stroke-width="0.75"/>
</g>
<defs>
<clipPath id="clip0_229_1456">
<rect width="24" height="24" fill="white"/>
</clipPath>
</defs>
</svg>
