<svg width="16" height="20" viewBox="0 0 16 20" fill="none" xmlns="http://www.w3.org/2000/svg">
<g clip-path="url(#clip0_229_1464)">
<path d="M7.12892 16.2524L6.85815 15.9699L6.85316 15.9751L0.738947 9.59507C0.738728 9.59484 0.738509 9.59461 0.73829 9.59438C0.38558 9.22174 0.275602 8.66392 0.470785 8.17512C0.666411 7.6852 1.11724 7.38021 1.59938 7.38021L1.59953 7.38021L14.3722 7.375C14.3722 7.375 14.3723 7.375 14.3723 7.375C14.8587 7.37503 15.3049 7.67937 15.5008 8.16991C15.6968 8.6609 15.5892 9.21771 15.234 9.58838L8.84761 16.2524C8.37157 16.7492 7.60496 16.7492 7.12892 16.2524Z" fill="#F9FAFF" stroke="#5D3747" stroke-width="0.75"/>
</g>
<defs>
<clipPath id="clip0_229_1464">
<rect width="15.97" height="20" fill="white"/>
</clipPath>
</defs>
</svg>
