<svg width="19" height="16" viewBox="0 0 19 16" fill="none" xmlns="http://www.w3.org/2000/svg">
<path d="M3.71875 0.625L4.212 0.542792L4.21068 0.535557L3.71875 0.625ZM3.78125 1L3.28805 1.0822L3.35769 1.5H3.78125V1ZM17.875 2.28125L17.396 2.13755L17.3937 2.14588L17.875 2.28125ZM16.1875 8.28125L16.6683 8.41861L16.6688 8.41662L16.1875 8.28125ZM5.3125 9V8.5H4.71004L4.82106 9.09214L5.3125 9ZM5.59375 10.5L5.10231 10.5921L5.17879 11H5.59375V10.5ZM4.25 11.4062L4.74195 11.3168L4.74128 11.3133L4.25 11.4062ZM2.375 1.5L2.86628 1.40701L2.78924 1H2.375V1.5ZM9.875 5.625H10.375V5.125H9.875V5.625ZM11.125 5.625V5.125H10.625V5.625H11.125ZM11.125 4.375H10.625V4.875H11.125V4.375ZM9.875 4.375V4.875H10.375V4.375H9.875ZM3 0.5C3.08031 0.5 3.20352 0.586322 3.22682 0.714443L4.21068 0.535557C4.10898 -0.0238223 3.60719 -0.5 3 -0.5V0.5ZM3.22555 0.707199L3.28805 1.0822L4.27445 0.917801L4.21195 0.542801L3.22555 0.707199ZM3.78125 1.5H16.9062V0.5H3.78125V1.5ZM16.9062 1.5C17.2376 1.5 17.4845 1.84295 17.3961 2.13758L18.3539 2.42492C18.6405 1.46955 17.8874 0.5 16.9062 0.5V1.5ZM17.3937 2.14588L15.7062 8.14588L16.6688 8.41662L18.3563 2.41662L17.3937 2.14588ZM15.7067 8.14389C15.6445 8.36156 15.4697 8.5 15.2188 8.5V9.5C15.9053 9.5 16.4805 9.07594 16.6683 8.41861L15.7067 8.14389ZM15.2188 8.5H5.3125V9.5H15.2188V8.5ZM4.82106 9.09214L5.10231 10.5921L6.08519 10.4079L5.80394 8.90786L4.82106 9.09214ZM5.59375 11H15.25V10H5.59375V11ZM15.25 11C15.3801 11 15.5 11.1199 15.5 11.25H16.5C16.5 10.5676 15.9324 10 15.25 10V11ZM15.5 11.25C15.5 11.3978 15.3939 11.5 15.25 11.5V12.5C15.9186 12.5 16.5 11.9772 16.5 11.25H15.5ZM15.25 11.5H4.96875V12.5H15.25V11.5ZM4.96875 11.5C4.85813 11.5 4.7597 11.4145 4.74193 11.3168L3.75807 11.4957C3.8653 12.0855 4.39187 12.5 4.96875 12.5V11.5ZM4.74128 11.3133L2.86628 1.40701L1.88372 1.59299L3.75872 11.4992L4.74128 11.3133ZM2.375 1H0.75V2H2.375V1ZM0.75 1C0.588642 1 0.5 0.911358 0.5 0.75H-0.5C-0.5 1.46364 0.0363576 2 0.75 2V1ZM0.5 0.75C0.5 0.606131 0.602206 0.5 0.75 0.5V-0.5C0.0227942 -0.5 -0.5 0.0813691 -0.5 0.75H0.5ZM0.75 0.5H3V-0.5H0.75V0.5ZM8.5 6.125H9.875V5.125H8.5V6.125ZM9.375 5.625V7H10.375V5.625H9.375ZM9.375 7C9.375 7.60321 9.83246 8.125 10.5 8.125V7.125C10.4433 7.125 10.4184 7.10635 10.4066 7.09411C10.3922 7.07925 10.375 7.04973 10.375 7H9.375ZM10.5 8.125C11.1199 8.125 11.625 7.61989 11.625 7H10.625C10.625 7.06761 10.5676 7.125 10.5 7.125V8.125ZM11.625 7V5.625H10.625V7H11.625ZM11.125 6.125H12.5V5.125H11.125V6.125ZM12.5 6.125C13.1199 6.125 13.625 5.61989 13.625 5H12.625C12.625 5.06761 12.5676 5.125 12.5 5.125V6.125ZM13.625 5C13.625 4.38011 13.1199 3.875 12.5 3.875V4.875C12.5676 4.875 12.625 4.93239 12.625 5H13.625ZM12.5 3.875H11.125V4.875H12.5V3.875ZM11.625 4.375V3H10.625V4.375H11.625ZM11.625 3C11.625 2.38011 11.1199 1.875 10.5 1.875V2.875C10.5676 2.875 10.625 2.93239 10.625 3H11.625ZM10.5 1.875C9.83246 1.875 9.375 2.39679 9.375 3H10.375C10.375 2.95027 10.3922 2.92075 10.4066 2.90589C10.4184 2.89365 10.4433 2.875 10.5 2.875V1.875ZM9.375 3V4.375H10.375V3H9.375ZM9.875 3.875H8.5V4.875H9.875V3.875ZM8.5 3.875C7.83246 3.875 7.375 4.39679 7.375 5H8.375C8.375 4.95027 8.39223 4.92075 8.40658 4.90589C8.4184 4.89365 8.44327 4.875 8.5 4.875V3.875ZM7.375 5C7.375 5.60321 7.83246 6.125 8.5 6.125V5.125C8.44327 5.125 8.4184 5.10635 8.40658 5.09411C8.39223 5.07925 8.375 5.04973 8.375 5H7.375ZM4.5 14.5C4.5 13.9568 4.93915 13.5 5.5 13.5V12.5C4.37335 12.5 3.5 13.4182 3.5 14.5H4.5ZM5.5 13.5C6.03636 13.5 6.5 13.9636 6.5 14.5H7.5C7.5 13.4114 6.58864 12.5 5.5 12.5V13.5ZM6.5 14.5C6.5 15.0608 6.04316 15.5 5.5 15.5V16.5C6.58184 16.5 7.5 15.6267 7.5 14.5H6.5ZM5.5 15.5C4.93239 15.5 4.5 15.0676 4.5 14.5H3.5C3.5 15.6199 4.38011 16.5 5.5 16.5V15.5ZM15.5 14.5C15.5 15.0608 15.0432 15.5 14.5 15.5V16.5C15.5818 16.5 16.5 15.6267 16.5 14.5H15.5ZM14.5 15.5C13.9324 15.5 13.5 15.0676 13.5 14.5H12.5C12.5 15.6199 13.3801 16.5 14.5 16.5V15.5ZM13.5 14.5C13.5 13.9568 13.9392 13.5 14.5 13.5V12.5C13.3733 12.5 12.5 13.4182 12.5 14.5H13.5ZM14.5 13.5C15.0364 13.5 15.5 13.9636 15.5 14.5H16.5C16.5 13.4114 15.5886 12.5 14.5 12.5V13.5Z" fill="#5D3747"/>
</svg>
