<svg width="24" height="24" viewBox="0 0 24 24" fill="none" xmlns="http://www.w3.org/2000/svg">
<path d="M23.0245 3.83354L23.0244 3.83366L15.1306 11.735L14.8656 12.0002L15.1309 12.2653L23.032 20.159C23.0321 20.159 23.0321 20.159 23.0322 20.1591C23.8227 20.9497 23.8226 22.234 23.032 23.0245C22.2414 23.8152 20.9571 23.8152 20.1665 23.0245L20.1663 23.0244L12.265 15.1306L11.9997 14.8656L11.7347 15.1309L3.84103 23.032C3.841 23.0321 3.84095 23.0321 3.84091 23.0322C3.05029 23.8227 1.76603 23.8226 0.975457 23.032C0.184843 22.2414 0.184843 20.9571 0.975457 20.1665L0.975583 20.1663L8.86938 12.265L9.13442 11.9997L8.86913 11.7347L0.967961 3.84103C0.967919 3.84099 0.967877 3.84095 0.967835 3.84091C0.177346 3.05028 0.177388 1.76603 0.967961 0.975457C1.75857 0.184843 3.04292 0.184843 3.83354 0.975457L3.83366 0.975583L11.735 8.86938L12.0002 9.13442L12.2653 8.86913L20.159 0.967961C20.159 0.967922 20.159 0.967873 20.1591 0.967835C20.9497 0.177337 22.234 0.177385 23.0245 0.967961C23.8152 1.75857 23.8152 3.04292 23.0245 3.83354Z" fill="#F9FAFF" stroke="#5D3747" stroke-width="0.75"/>
</svg>
