<svg width="21" height="24" viewBox="0 0 21 24" fill="none" xmlns="http://www.w3.org/2000/svg">
<path d="M15.5405 11.5H12.8164V9.81797C12.8164 9.43107 12.9121 9.11033 13.1004 8.89259C13.277 8.6884 13.5976 8.5025 14.2111 8.5025H15.6769H16.1769V8.0025V5.14313V4.72118L15.7609 4.65024L15.6769 5.14313L15.7608 4.65023L15.7607 4.6502L15.7604 4.65015L15.7593 4.64997L15.7558 4.64938L15.7432 4.64727L15.696 4.63963C15.6553 4.63313 15.5964 4.62395 15.5219 4.613C15.3731 4.5911 15.1618 4.56203 14.91 4.53298C14.4086 4.47513 13.7371 4.41625 13.0744 4.41625C11.6452 4.41625 10.4088 4.85102 9.52909 5.73166C8.6489 6.61278 8.18359 7.88241 8.18359 9.43875V11.5H5.73047H5.23047V12V15.3605V15.8605H5.73047H8.18359V22H2.25C1.78587 22 1.34075 21.8156 1.01256 21.4874C0.684374 21.1592 0.5 20.7141 0.5 20.25V3.75C0.5 3.28587 0.684374 2.84075 1.01256 2.51256C1.34075 2.18437 1.78587 2 2.25 2H18.75C19.2141 2 19.6592 2.18437 19.9874 2.51256C20.3156 2.84075 20.5 3.28587 20.5 3.75V20.25C20.5 20.7141 20.3156 21.1592 19.9874 21.4874C19.6592 21.8156 19.2141 22 18.75 22H12.8164V15.8605H15.0248H15.454L15.5191 15.4363L16.0347 12.0758L16.123 11.5H15.5405Z" stroke="#5D3747"/>
</svg>
